<?xml version="1.0" encoding="iso-8859-1"?>
<!-- Generator: Adobe Illustrator 18.1.1, SVG Export Plug-In . SVG Version: 6.00 Build 0)  -->
<svg version="1.1" id="Capa_1" xmlns="http://www.w3.org/2000/svg" xmlns:xlink="http://www.w3.org/1999/xlink" x="0px" y="0px"
	 viewBox="0 0 476.415 476.415" style="enable-background:new 0 0 476.415 476.415;" xml:space="preserve">
<g>
	<g>
		<path style="fill:#010002;" d="M35.287,384.137c6.649-4.78,14.932-10.079,23.825-14.314
			c-15.956,13.168-27.499,31.401-31.197,54.852c-4.845,30.759,42.147,43.967,47.032,12.965c4.69-29.759,26.491-41.838,52.137-44.219
			c11.77,30.385,41.204,51.958,75.742,51.958h79.254c33.896,0,62.923-20.76,75.116-50.251c1.845,1.179,3.487,2.658,5.308,4.625
			c1.227,1.325,3.601,7.478,4.975,13.006c1.886,7.56,1.91,15.469,1.975,23.475c0.268,31.433,49.04,31.466,48.771,0
			c-0.163-18.858-2.495-36.896-10.144-53.218c11.209,9.543,16.282,27.401,20.159,40.399c8.982,30.059,56.063,17.241,47.032-12.965
			c-8.633-28.873-21.175-54.982-46.512-72.491c-18.85-13.03-42.789-14.266-65.394-11.762V136.451
			c21.24-3.138,61.176-15.582,43.691-64.988c-21.045-59.477-14.916-4.43-44.658,14.534c-5.763-39.245-39.48-69.402-80.318-69.402
			h-79.254c-44.894,0-81.286,36.392-81.286,81.286v4.641c-15.135-6.137-33.368-20.687-34.546-55.445
			c-1.959-57.705-88.528,145.233,34.546,117.946v155.142c-35.928-14.68-78.839-1.171-110.866,21.85
			C-14.614,360.198,9.69,402.532,35.287,384.137z M316.113,263.948h-22.646l-23.589,29.019l-26.028-29.019h-22.906l-18.257,41.212
			c0,0-5.934-27.109-9.803-41.212h-21.573v-14.469h144.786v14.469H316.113z M246.687,60.286c47.227,0,85.521,38.286,85.521,85.521
			s-38.286,85.521-85.521,85.521c-45.097,0-81.96-34.937-85.204-79.205c-0.154-2.089-0.317-4.186-0.317-6.316
			c0-12.884,2.934-25.06,8.039-36.018C182.804,80.583,212.335,60.286,246.687,60.286z"/>
		<path style="fill:#010002;" d="M232.47,157.106c0.992,33.246,6.21,58.64,12.518,58.64c6.308,0,11.518-25.386,12.518-58.64
			c30.767-1.032,54.039-5.771,54.039-11.469s-23.272-10.445-54.039-11.469c-0.992-33.246-6.21-58.64-12.518-58.64
			s-11.518,25.386-12.518,58.64c-17.98,0.602-33.384,2.471-43.098,5.064c-6.153,1.642-9.966,3.577-10.722,5.649
			c-0.089,0.252-0.219,0.504-0.219,0.756C178.439,151.335,201.703,156.082,232.47,157.106z"/>
	</g>
</g>
<g>
</g>
<g>
</g>
<g>
</g>
<g>
</g>
<g>
</g>
<g>
</g>
<g>
</g>
<g>
</g>
<g>
</g>
<g>
</g>
<g>
</g>
<g>
</g>
<g>
</g>
<g>
</g>
<g>
</g>
</svg>
